<?xml version="1.0" standalone="no"?>
<!DOCTYPE svg PUBLIC "-//W3C//DTD SVG 20010904//EN"
 "http://www.w3.org/TR/2001/REC-SVG-20010904/DTD/svg10.dtd">
<svg version="1.0" xmlns="http://www.w3.org/2000/svg"
 width="840.000000pt" height="859.000000pt" viewBox="0 0 840.000000 859.000000"
 preserveAspectRatio="xMidYMid meet">

<g transform="translate(0.000000,859.000000) scale(0.100000,-0.100000)"
fill="#000000" stroke="none">
<path d="M2080 8459 c-589 -44 -1106 -301 -1500 -744 -221 -247 -390 -571
-475 -906 -60 -238 -58 -175 -62 -1521 -3 -853 -1 -1238 7 -1238 5 0 10 -5 10
-11 0 -5 -5 -7 -10 -4 -5 3 -10 -1 -10 -9 0 -9 5 -16 10 -16 6 0 10 -5 10 -11
0 -5 -4 -7 -10 -4 -6 3 -10 -3 -10 -14 0 -14 6 -21 20 -21 13 0 20 7 20 20 0
11 4 20 8 20 4 0 7 -15 7 -32 -2 -49 10 -66 42 -61 27 4 27 4 9 -11 -17 -14
-17 -16 -3 -22 9 -3 14 -11 11 -16 -4 -6 4 -5 16 2 24 13 40 6 22 -12 -16 -16
10 -38 37 -31 12 3 21 1 21 -6 0 -6 -4 -11 -10 -11 -16 0 -11 -17 7 -24 20 -8
37 15 20 26 -8 5 -6 8 6 8 9 0 17 -4 17 -9 0 -5 3 -18 6 -28 5 -15 4 -15 -5
-3 -14 19 -14 0 -1 -35 8 -21 13 -25 24 -16 13 11 26 5 26 -11 0 -5 -5 -6 -12
-2 -7 4 -2 -7 11 -24 20 -29 41 -46 26 -22 -6 10 9 15 30 10 6 -1 15 -3 22 -4
7 -1 16 -6 20 -10 4 -5 -7 -5 -25 -1 -24 5 -32 3 -32 -8 0 -24 28 -42 44 -28
12 10 14 7 9 -20 -4 -30 -3 -32 24 -27 15 3 39 2 53 -2 l25 -8 -26 -1 c-24 -1
-45 -22 -33 -33 2 -3 26 -3 54 -2 52 3 64 -3 49 -26 -6 -10 -9 -11 -9 -2 0 6
-11 12 -25 12 -14 0 -25 -4 -25 -10 0 -5 5 -10 11 -10 5 0 7 -5 4 -10 -4 -7 3
-8 21 -4 24 6 27 5 21 -15 -6 -23 23 -45 31 -23 2 6 10 8 18 5 7 -3 11 -10 7
-17 -4 -7 -1 -6 9 2 12 10 17 10 26 -1 13 -16 12 -59 -2 -69 -17 -12 2 -21 40
-20 36 1 36 1 19 -18 -16 -17 -16 -20 -2 -20 8 0 18 -6 20 -12 4 -10 6 -10 6
0 2 20 21 14 21 -7 0 -38 10 -51 31 -40 15 7 19 6 19 -5 0 -8 -5 -18 -11 -22
-8 -4 -7 -9 2 -15 20 -12 31 -11 23 2 -4 8 1 9 17 5 23 -7 23 -7 5 8 -19 15
-19 17 -2 29 17 13 18 71 22 1193 5 1366 7 1488 29 1609 57 320 191 622 386
867 296 370 736 624 1209 698 42 6 667 10 1761 10 1668 0 1699 0 1818 -21 231
-39 519 -153 709 -280 121 -82 185 -134 286 -232 297 -292 464 -610 552 -1052
17 -84 19 -202 22 -1750 3 -1636 2 -1662 -18 -1797 -52 -341 -176 -631 -390
-913 -52 -68 -241 -254 -326 -321 -253 -197 -544 -322 -879 -375 -123 -20
-178 -21 -1040 -25 -500 -2 -1107 -4 -1347 -4 -261 -1 -438 -5 -438 -10 0 -5
9 -14 20 -20 14 -7 20 -7 20 0 0 5 5 10 11 10 8 0 8 -4 0 -13 -8 -10 -7 -17 1
-25 9 -9 9 -12 0 -12 -6 0 -15 8 -21 17 -8 15 -12 16 -23 5 -7 -7 -8 -12 -3
-10 13 4 85 -67 85 -84 0 -9 3 -9 10 2 7 11 10 11 10 2 0 -7 6 -12 13 -11 32
4 40 -1 27 -16 -17 -20 9 -46 40 -38 20 5 21 4 10 -17 -10 -18 -9 -24 1 -31
18 -11 27 -11 34 1 13 21 23 9 20 -24 -2 -31 0 -34 22 -30 12 2 23 0 23 -6 0
-5 -4 -10 -9 -10 -5 0 -4 -11 2 -24 9 -18 14 -21 23 -11 7 7 10 22 7 34 -4 14
-1 21 10 21 10 0 15 -11 14 -37 0 -69 2 -76 15 -66 7 5 28 10 46 11 23 2 32
-2 32 -13 0 -9 -5 -13 -10 -10 -6 3 -19 3 -31 0 -16 -5 -18 -9 -8 -21 7 -8 18
-13 25 -10 18 7 39 -20 23 -29 -8 -6 -7 -11 6 -17 11 -7 20 -7 27 0 6 6 21 7
38 2 16 -5 32 -5 36 -2 4 4 4 1 0 -6 -5 -9 -18 -11 -37 -7 -21 5 -29 3 -29 -7
0 -21 17 -41 28 -34 6 3 18 3 28 -1 17 -6 17 -7 0 -13 -17 -6 -17 -7 -2 -23
18 -18 41 -24 31 -7 -3 5 9 8 30 6 45 -4 58 -16 17 -16 -17 0 -34 -5 -38 -11
-8 -13 14 -29 36 -28 28 2 32 -1 20 -16 -6 -8 -9 -19 -5 -25 8 -13 35 -13 35
0 0 6 6 10 13 10 16 0 18 -29 3 -32 -69 -15 2332 -22 2494 -8 251 22 519 97
750 208 229 110 405 236 596 427 305 304 488 632 588 1055 58 245 57 186 53
2540 -3 2142 -3 2156 -24 2265 -93 485 -286 857 -613 1184 -359 359 -763 557
-1290 632 -99 15 -4181 22 -4360 8z m-1930 -4509 c0 -5 -2 -10 -4 -10 -3 0 -8
5 -11 10 -3 6 -1 10 4 10 6 0 11 -4 11 -10z m50 -50 c0 -5 -7 -10 -16 -10 -8
0 -12 5 -9 10 3 6 10 10 16 10 5 0 9 -4 9 -10z m32 -52 c-7 -7 -12 -8 -12 -2
0 14 12 26 19 19 2 -3 -1 -11 -7 -17z m163 -138 c3 -5 -1 -10 -10 -10 -9 0
-13 5 -10 10 3 6 8 10 10 10 2 0 7 -4 10 -10z m95 -94 c0 -2 -7 -7 -16 -10 -8
-3 -12 -2 -9 4 6 10 25 14 25 6z m235 -264 c-8 -8 -25 10 -19 20 4 6 9 5 15
-3 4 -7 6 -15 4 -17z m41 -39 c-10 -10 -19 5 -10 18 6 11 8 11 12 0 2 -7 1
-15 -2 -18z m40 -33 c5 1 10 -3 12 -9 2 -5 -6 -9 -17 -8 -14 1 -21 8 -21 22 0
15 3 16 9 7 4 -8 12 -13 17 -12z m2509 -2540 c3 -5 1 -10 -4 -10 -6 0 -11 5
-11 10 0 6 2 10 4 10 3 0 8 -4 11 -10z m49 -11 c-3 -5 -10 -7 -15 -3 -5 3 -7
10 -3 15 3 5 10 7 15 3 5 -3 7 -10 3 -15z m91 -89 c3 -5 1 -10 -4 -10 -6 0
-11 5 -11 10 0 6 2 10 4 10 3 0 8 -4 11 -10z m55 -54 c0 -3 -4 -8 -10 -11 -5
-3 -10 -1 -10 4 0 6 5 11 10 11 6 0 10 -2 10 -4z m95 -96 c3 -5 1 -10 -4 -10
-6 0 -11 5 -11 10 0 6 2 10 4 10 3 0 8 -4 11 -10z m95 -90 c0 -5 -4 -10 -10
-10 -5 0 -10 5 -10 10 0 6 5 10 10 10 6 0 10 -4 10 -10z m100 -94 c0 -2 -7 -7
-16 -10 -8 -3 -12 -2 -9 4 6 10 25 14 25 6z m87 -102 c-3 -3 -12 -4 -19 -1 -8
3 -5 6 6 6 11 1 17 -2 13 -5z m50 -50 c-3 -3 -12 -4 -19 -1 -8 3 -5 6 6 6 11
1 17 -2 13 -5z"/>
<path d="M2530 7114 c-92 -15 -237 -60 -327 -99 -406 -180 -702 -546 -805
-993 l-22 -97 -3 -1628 c-2 -1061 0 -1626 6 -1622 6 3 7 13 4 22 -4 11 -3 14
6 9 7 -5 10 -14 7 -22 -3 -7 -1 -16 4 -19 16 -10 11 -25 -5 -19 -8 4 -15 1
-15 -5 0 -6 6 -12 13 -12 6 -1 19 -2 27 -3 9 0 16 -13 18 -33 3 -31 4 -32 48
-29 25 2 47 -1 51 -7 3 -6 -9 -8 -31 -5 -34 4 -35 3 -22 -17 9 -12 22 -19 36
-17 17 3 21 0 17 -12 -7 -18 1 -46 13 -46 5 0 16 7 24 16 9 8 16 11 16 5 0 -5
8 -12 18 -14 13 -4 12 -5 -5 -6 -12 0 -24 -5 -28 -10 -6 -11 28 -33 46 -29 6
2 14 -3 17 -11 2 -8 0 -11 -6 -7 -6 3 -8 -1 -5 -12 2 -10 13 -24 25 -31 11 -7
18 -9 15 -4 -3 5 -2 15 4 23 7 13 9 13 10 0 1 -8 1 -22 0 -32 -2 -21 18 -33
32 -19 13 13 31 15 23 2 -4 -5 -3 -11 1 -14 5 -2 2 -2 -4 -1 -7 2 -13 -3 -13
-11 0 -8 5 -15 10 -15 6 0 15 -10 20 -22 l9 -23 0 23 c1 12 6 22 12 22 5 0 7
-5 4 -10 -3 -5 -1 -10 6 -10 8 0 9 -3 0 -13 -15 -19 -4 -27 31 -20 l30 6 -17
-27 c-19 -29 -20 -28 43 -29 12 0 22 -4 22 -8 0 -8 -15 -13 -32 -10 -16 2 -7
-15 13 -27 15 -10 24 -10 34 -2 9 8 14 6 19 -6 9 -23 8 -24 -11 -18 -16 5 -16
4 -3 -8 8 -8 21 -20 29 -28 8 -8 11 -10 8 -4 -4 7 -1 14 7 17 17 7 30 -19 15
-29 -6 -3 0 -14 13 -26 13 -11 22 -25 20 -32 -2 -6 0 -8 4 -4 4 4 13 0 20 -10
8 -10 13 -12 14 -5 0 7 7 10 16 6 13 -5 13 -7 2 -14 -10 -7 -10 -11 3 -25 13
-13 21 -14 38 -5 17 9 21 9 21 -3 0 -8 -5 -16 -12 -18 -16 -6 3 -33 22 -33 8
0 19 5 23 10 5 6 6 -2 3 -16 -5 -21 0 -30 20 -44 15 -9 23 -12 20 -6 -4 6 -1
11 7 11 9 0 13 -9 11 -26 -2 -23 0 -25 22 -20 27 7 29 3 14 -25 -8 -15 -7 -19
5 -19 8 0 15 -4 15 -9 0 -5 9 -7 19 -4 16 4 19 1 14 -16 -3 -13 -1 -21 6 -21
7 0 9 -6 6 -13 -4 -6 1 -3 9 7 9 11 16 23 16 28 0 4 4 8 10 8 5 0 7 -6 4 -14
-3 -8 -1 -17 5 -21 6 -3 11 -11 11 -16 0 -6 -5 -7 -11 -3 -8 4 -8 0 0 -15 7
-11 17 -20 24 -18 7 1 12 -5 12 -13 1 -8 6 -24 13 -35 9 -17 11 -17 12 -3 0
23 40 19 40 -4 0 -12 -5 -15 -16 -11 -14 5 -14 4 1 -14 10 -12 25 -19 36 -16
19 5 28 -12 10 -19 -5 -1 -3 -12 5 -23 14 -19 16 -19 25 -2 12 21 33 23 25 2
-3 -8 0 -15 7 -15 8 0 8 -3 -2 -9 -19 -12 -3 -34 20 -28 16 4 19 0 19 -29 0
-19 4 -34 10 -34 5 0 9 5 7 11 -1 6 4 14 11 16 7 3 12 -4 12 -19 0 -39 16 -55
39 -41 12 7 22 9 26 3 3 -5 13 -9 23 -9 9 0 40 -3 67 -6 88 -10 2965 -13 3080
-4 562 46 1036 419 1218 959 70 208 67 113 67 1929 0 1090 -4 1658 -11 1701
-51 318 -186 578 -416 801 -170 164 -347 268 -578 337 -178 53 -131 52 -1895
51 -1361 -1 -1649 -3 -1720 -15z m3732 -732 c106 -52 170 -150 176 -269 7
-133 -52 -241 -168 -303 -58 -31 -73 -34 -145 -35 -66 0 -90 5 -135 26 -209
100 -253 380 -83 530 20 17 59 42 87 56 69 32 197 30 268 -5z m-1634 -601
c370 -82 641 -229 902 -491 147 -146 235 -267 324 -440 78 -152 128 -293 163
-459 25 -116 27 -145 27 -351 -1 -206 -3 -235 -27 -345 -82 -371 -245 -665
-509 -921 -198 -191 -427 -331 -680 -412 -328 -107 -713 -113 -1043 -17 -641
187 -1129 732 -1247 1394 -31 175 -31 444 0 611 93 503 374 920 806 1194 176
112 369 189 591 235 141 29 146 29 385 26 171 -3 234 -8 308 -24z m-3188
-3131 c0 -5 -5 -10 -11 -10 -5 0 -7 5 -4 10 3 6 8 10 11 10 2 0 4 -4 4 -10z
m150 -140 c0 -5 -2 -10 -4 -10 -3 0 -8 5 -11 10 -3 6 -1 10 4 10 6 0 11 -4 11
-10z m95 -100 c3 -5 -1 -10 -9 -10 -9 0 -16 5 -16 10 0 6 4 10 9 10 6 0 13 -4
16 -10z m90 -90 c3 -5 1 -10 -4 -10 -6 0 -11 5 -11 10 0 6 2 10 4 10 3 0 8 -4
11 -10z m55 -59 c0 -5 -9 -11 -19 -14 -14 -3 -18 -1 -14 9 6 15 33 19 33 5z
m45 -41 c3 -5 -1 -10 -10 -10 -9 0 -13 5 -10 10 3 6 8 10 10 10 2 0 7 -4 10
-10z m47 -52 c-6 -6 -15 -8 -19 -4 -4 4 -1 11 7 16 19 12 27 3 12 -12z m48
-49 c0 -6 -4 -7 -10 -4 -5 3 -10 11 -10 16 0 6 5 7 10 4 6 -3 10 -11 10 -16z
m55 -78 c5 -16 3 -22 -5 -19 -7 2 -14 19 -15 38 -3 35 6 26 20 -19z m139 -106
c3 -9 0 -15 -9 -15 -9 0 -12 6 -9 15 4 8 7 15 9 15 2 0 5 -7 9 -15z m45 -66
c-16 -10 -23 -4 -14 10 3 6 11 8 17 5 6 -4 5 -9 -3 -15z m51 -28 c0 -6 -4 -13
-10 -16 -5 -3 -10 1 -10 9 0 9 5 16 10 16 6 0 10 -4 10 -9z m190 -201 c0 -5
-4 -10 -10 -10 -5 0 -10 5 -10 10 0 6 5 10 10 10 6 0 10 -4 10 -10z m95 -90
c3 -5 2 -10 -4 -10 -5 0 -13 5 -16 10 -3 6 -2 10 4 10 5 0 13 -4 16 -10z m57
-54 c7 4 8 2 4 -5 -9 -13 -26 -5 -25 12 0 9 2 8 6 -1 2 -6 10 -9 15 -6z m87
-97 c-22 -14 -33 -10 -19 6 7 8 17 12 22 9 6 -4 5 -10 -3 -15z"/>
<path d="M4150 5315 c-8 -2 -49 -9 -90 -15 -164 -26 -350 -99 -491 -193 -121
-80 -260 -217 -346 -342 -49 -71 -117 -207 -148 -297 -207 -593 44 -1250 590
-1547 195 -107 387 -154 625 -153 349 2 648 127 895 376 186 188 300 402 351
663 26 131 24 358 -5 491 -29 137 -43 177 -106 307 -174 359 -501 611 -895
691 -68 14 -344 28 -380 19z"/>
<path d="M631 3409 c-13 -5 -22 -11 -20 -13 10 -8 53 -28 47 -21 -4 5 -3 14 3
21 14 17 -1 24 -30 13z"/>
<path d="M2578 1363 c7 -3 16 -2 19 1 4 3 -2 6 -13 5 -11 0 -14 -3 -6 -6z"/>
<path d="M3176 838 c3 -4 9 -8 15 -8 5 0 9 4 9 8 0 5 -7 9 -15 9 -8 0 -12 -4
-9 -9z"/>
</g>
</svg>
